<?xml version="1.0" standalone="no"?>
<!DOCTYPE svg PUBLIC "-//W3C//DTD SVG 20010904//EN"
 "http://www.w3.org/TR/2001/REC-SVG-20010904/DTD/svg10.dtd">
<svg version="1.0" xmlns="http://www.w3.org/2000/svg"
 width="286.000000pt" height="286.000000pt" viewBox="0 0 286.000000 286.000000"
 preserveAspectRatio="xMidYMid meet">

<g transform="translate(0.000000,286.000000) scale(0.100000,-0.100000)"
fill="#000000" stroke="none">
<path fill="#c70101" d="M697 2112 c-619 -618 -688 -691 -694 -725 -6 -38 -4 -40 100 -144
104 -104 106 -106 144 -100 33 6 97 66 611 579 l573 573 568 -572 c377 -380
576 -574 594 -578 44 -11 81 11 172 106 136 141 206 43 -608 857 -684 684
-692 692 -732 692 -39 0 -47 -8 -728 -688z"/>
<path fill="#c0c0c0" d="M1395 1700 c-11 -4 -330 -319 -709 -698 l-689 -690 6 -38 c5 -30 23
-55 89 -122 94 -95 132 -117 175 -101 15 5 283 265 596 577 l567 567 573 -573
c544 -544 576 -574 611 -575 34 -1 45 7 136 98 157 156 225 54 -577 858 -373
373 -690 685 -705 693 -30 16 -44 17 -73 4z"/>
</g>
</svg>
